<svg width="64" height="64" viewBox="0 0 64 64" fill="none" xmlns="http://www.w3.org/2000/svg">
<g clip-path="url(#clip0_1412_15845)">
<path d="M60.4444 26.6667H54.4676C53.8916 24.2329 52.9316 21.9538 51.6551 19.8862L55.8844 15.6569C57.2729 14.2684 57.2729 12.016 55.8844 10.6276L53.3707 8.11378C51.9822 6.72533 49.7316 6.72533 48.3431 8.11378L44.1138 12.3431C42.0444 11.0667 39.7671 10.1084 37.3333 9.53244V3.55556C37.3333 1.59289 35.7404 0 33.7778 0H30.2222C28.2596 0 26.6667 1.59289 26.6667 3.55556V9.53244C24.2329 10.1084 21.9538 11.0684 19.8862 12.3449L15.6587 8.11556C14.2702 6.72711 12.0178 6.72711 10.6311 8.11556L8.11556 10.6293C6.72711 12.0178 6.72711 14.2702 8.11378 15.6587L12.3431 19.888C11.0667 21.9556 10.1084 24.2347 9.53244 26.6667H3.55556C1.59289 26.6667 0 28.2596 0 30.2222V33.7778C0 35.7404 1.59289 37.3333 3.55556 37.3333H9.53244C10.1084 39.7653 11.0684 42.0444 12.3449 44.112L8.11556 48.3413C6.72889 49.728 6.72889 51.9822 8.11733 53.3707L10.6311 55.8844C12.0178 57.2711 14.2702 57.2711 15.6587 55.8844L19.888 51.6551C21.9556 52.9333 24.2347 53.8916 26.6684 54.4676V60.4444C26.6684 62.4071 28.2613 64 30.224 64H33.7796C35.7422 64 37.3351 62.4071 37.3351 60.4444V54.4676C39.7671 53.8916 42.0462 52.9316 44.1138 51.6551L48.3431 55.8844C49.7316 57.2729 51.9822 57.2729 53.3707 55.8844L55.8844 53.3707C57.2729 51.9822 57.2729 49.7298 55.8844 48.3413L51.6551 44.112C52.9333 42.0444 53.8916 39.7653 54.4676 37.3316H60.4444C62.4071 37.3316 64 35.7387 64 33.776V30.2204C64 28.2596 62.4071 26.6667 60.4444 26.6667ZM32 46.2222C24.1458 46.2222 17.7778 39.8542 17.7778 32C17.7778 24.1458 24.1458 17.7778 32 17.7778C39.8542 17.7778 46.2222 24.1458 46.2222 32C46.2222 39.8542 39.8542 46.2222 32 46.2222Z" fill="url(#paint0_linear_1412_15845)"/>
</g>
<defs>
<linearGradient id="paint0_linear_1412_15845" x1="48.5" y1="-2.46335e-06" x2="20.5" y2="82.5" gradientUnits="userSpaceOnUse">
<stop stop-color="#66757F"/>
<stop offset="0.417493" stop-color="#66757F" stop-opacity="0.578125"/>
<stop offset="1" stop-color="#66757F" stop-opacity="0"/>
</linearGradient>
<clipPath id="clip0_1412_15845">
<rect width="64" height="64" fill="white"/>
</clipPath>
</defs>
</svg>
