<svg width="64" height="64" viewBox="0 0 64 64" fill="none" xmlns="http://www.w3.org/2000/svg">
	<path
		d="M51.5556 19.6621C51.5556 31.1092 42.6667 32.887 42.6667 43.5555C42.6667 49.063 37.1147 49.527 32.8889 49.527C29.2391 49.527 21.1805 48.1421 21.1805 43.5519C21.1805 32.8888 12.4445 31.111 12.4445 19.6621C12.4445 8.94035 21.84 0.248795 32.1476 0.248795C42.4587 0.248795 51.5556 8.94035 51.5556 19.6621Z"
		fill="url(#paint0_linear_1444_11757)" />
	<path
		d="M39.408 57.7779C39.408 59.2499 35.4365 62.2223 32 62.2223C28.5636 62.2223 24.592 59.2499 24.592 57.7779C24.592 56.3059 28.5618 56.889 32 56.889C35.4365 56.889 39.408 56.3059 39.408 57.7779Z"
		fill="url(#paint1_linear_1444_11757)" />
	<path
		d="M40.3678 18.2987C39.6727 17.6036 38.5491 17.6036 37.854 18.2987L31.9998 24.1529L26.1456 18.2987C25.4505 17.6036 24.3269 17.6036 23.6318 18.2987C22.9367 18.9938 22.9367 20.1173 23.6318 20.8124L30.222 27.4027V46.2222C30.222 47.2053 31.0185 48 31.9998 48C32.9811 48 33.7776 47.2053 33.7776 46.2222V27.4027L40.3678 20.8124C41.0629 20.1173 41.0629 18.9938 40.3678 18.2987V18.2987Z"
		fill="url(#paint2_linear_1444_11757)" />
	<path
		d="M42.6667 55.1111C42.6667 57.0738 41.0738 58.6667 39.1112 58.6667H24.8889C22.9263 58.6667 21.3334 57.0738 21.3334 55.1111V44.4444H42.6667V55.1111Z"
		fill="url(#paint3_linear_1444_11757)" />
	<path
		d="M21.3313 56.8888C20.478 56.8888 19.7242 56.2719 19.5802 55.4025C19.4185 54.4354 20.0727 53.5181 21.0416 53.3581L42.3749 49.8025C43.342 49.6283 44.2593 50.295 44.4193 51.2639C44.5811 52.231 43.9269 53.1483 42.958 53.3083L21.6247 56.8639C21.5269 56.8817 21.4273 56.8888 21.3313 56.8888V56.8888ZM21.3313 49.7777C20.478 49.7777 19.7242 49.1608 19.5802 48.2914C19.4185 47.3243 20.0727 46.407 21.0416 46.247L42.3749 42.6914C43.342 42.519 44.2593 43.1839 44.4193 44.1528C44.5811 45.1199 43.9269 46.0372 42.958 46.1972L21.6247 49.7528C21.5269 49.7705 21.4273 49.7777 21.3313 49.7777V49.7777Z"
		fill="url(#paint4_linear_1444_11757)" />
	<defs>
		<linearGradient id="paint0_linear_1444_11757" x1="32.0001" y1="48.5" x2="32.0001" y2="-11"
			gradientUnits="userSpaceOnUse">
			<stop offset="0.121017" stop-color="#FFD983" />
			<stop offset="1" stop-color="#FFA883" stop-opacity="0" />
		</linearGradient>
		<linearGradient id="paint1_linear_1444_11757" x1="36.5" y1="58.5" x2="34" y2="64.5" gradientUnits="userSpaceOnUse">
			<stop stop-color="#CCD6DD" />
			<stop offset="1" stop-color="#CCD6DD" stop-opacity="0" />
		</linearGradient>
		<linearGradient id="paint2_linear_1444_11757" x1="31.9998" y1="17.7773" x2="32.0001" y2="52"
			gradientUnits="userSpaceOnUse">
			<stop stop-color="#FFBF21" />
			<stop offset="1" stop-color="#FFA883" stop-opacity="0" />
		</linearGradient>
		<linearGradient id="paint3_linear_1444_11757" x1="32" y1="44.4444" x2="32.0001" y2="54"
			gradientUnits="userSpaceOnUse">
			<stop stop-color="#99AAB5" />
			<stop offset="1" stop-color="#D6E5EE" />
		</linearGradient>
		<linearGradient id="paint4_linear_1444_11757" x1="30.5" y1="44" x2="28" y2="54.5" gradientUnits="userSpaceOnUse">
			<stop stop-color="#CCD6DD" />
			<stop offset="1" stop-color="white" />
		</linearGradient>
	</defs>
</svg>