<svg width="64" height="64" viewBox="0 0 64 64" fill="none" xmlns="http://www.w3.org/2000/svg">
<g clip-path="url(#clip0_1412_15846)">
<path d="M63.2923 28.9421C58.7021 22.2558 49.2123 32.0958 31.8932 34.0958C25.4808 34.8354 19.703 40.1901 12.2541 39.6798C9.19989 39.4701 4.935 30.6825 1.74211 32.0834C0.0994417 32.8052 -0.654336 35.2141 1.03455 37.0238L19.7866 59.3989C19.7866 59.3989 20.7394 60.4976 23.9501 59.7367C24.7412 59.9696 36.6346 55.2034 43.511 45.6621C45.1572 43.3776 47.1199 41.4754 49.1519 39.8861C55.7492 35.0078 62.9208 33.3083 62.9208 33.3083C63.8381 32.5509 64.0532 31.7456 64.0034 31.0469C64.0639 29.8807 63.2923 28.9421 63.2923 28.9421Z" fill="#5C913B"/>
<path d="M20.4016 18.265C13.6763 27.5983 1.89851 32.0196 1.89851 32.0196C-0.298824 33.881 1.55718 36.0748 1.55718 36.0748L20.1136 58.0463C20.1136 58.0463 21.0416 59.1432 24.167 58.3823C24.167 58.3823 35.9447 53.9699 42.6683 44.6365C49.5998 35.0188 62.0994 31.9823 62.0994 31.9823C64.295 30.121 62.4407 27.9236 62.4407 27.9236L43.8843 5.95564C43.8843 5.95564 42.9563 4.85697 39.831 5.61431C39.831 5.61431 27.3332 8.64364 20.4016 18.265Z" fill="url(#paint0_linear_1412_15846)"/>
<path d="M39.1112 34.6667C44.5113 34.6667 48.8889 30.289 48.8889 24.8889C48.8889 19.4888 44.5113 15.1111 39.1112 15.1111C33.711 15.1111 29.3334 19.4888 29.3334 24.8889C29.3334 30.289 33.711 34.6667 39.1112 34.6667Z" fill="url(#paint1_linear_1412_15846)"/>
<path d="M22.8852 56.7625C21.3189 56.7625 20.7447 56.1794 20.6665 56.0905L3.93939 36.5652C3.90739 36.5279 3.05939 35.5572 3.1625 34.3234C3.22472 33.575 3.61228 32.9083 4.31272 32.3412L4.42472 32.2736C4.53316 32.231 15.3812 27.7723 21.4612 19.7136L21.8167 19.9803L21.4612 19.7136C27.8932 11.1874 38.9883 7.52876 39.0985 7.4932C42.2007 6.77143 43.2158 7.80254 43.3243 7.92343L59.8309 27.5572C59.8612 27.5892 60.7074 28.5634 60.6043 29.799C60.5421 30.5456 60.1545 31.2123 59.4541 31.7794L59.2781 31.8665C59.1696 31.8932 48.3821 34.5741 42.1332 42.855C35.9127 51.1039 25.0541 56.4408 24.9456 56.4923C24.1207 56.6879 23.4416 56.7625 22.8852 56.7625ZM21.3367 55.5056C21.3385 55.5056 22.1403 56.2452 24.6523 55.6621C24.6665 55.6425 35.3349 50.3963 41.4274 42.3216C47.5376 34.2239 57.8274 31.3314 58.9687 31.031C59.4256 30.6381 59.6781 30.2025 59.7189 29.735C59.7936 28.8816 59.1643 28.1474 59.1589 28.1403L42.6523 8.50476C42.6487 8.50476 41.8523 7.76698 39.3385 8.35009C39.2656 8.37498 28.4318 11.9519 22.1723 20.2488C16.1883 28.1794 5.74739 32.6843 4.82472 33.0719C4.34828 33.4719 4.08872 33.9181 4.04783 34.3963C3.97672 35.2425 4.6025 35.9732 4.60783 35.9803L21.3367 55.5056Z" fill="#5C913B"/>
<path d="M37.824 39.4064L37.8134 49.9664L38.6969 51.0153C40.4196 49.4437 42.0747 47.6766 43.5058 45.689C44.9902 43.6304 46.7147 41.8686 48.5334 40.3806L47.6747 39.3584L37.824 39.4064Z" fill="#FFAC33"/>
<path d="M47.6408 39.321L25.4079 12.9868C23.6017 14.473 21.8666 16.2064 20.391 18.2562C18.9493 20.2579 17.271 22.0197 15.5288 23.5735L18.1279 26.6508L18.1261 26.6526L37.815 49.9664C39.5573 48.4108 41.2159 46.6313 42.6595 44.6277C44.135 42.5797 45.8684 40.8482 47.6728 39.3619L47.639 39.321H47.6408Z" fill="url(#paint2_linear_1412_15846)"/>
<path d="M25.7402 40.098C22.9722 36.8197 17.1127 42.1389 15.4416 40.1602C14.6327 39.202 15.1536 37.9593 16.2167 37.0633C18.0033 35.5522 19.2922 36.4322 20.1011 35.7477C20.6753 35.2642 20.6451 34.6722 20.3038 34.2651C19.5109 33.3282 17.4842 33.8171 15.9091 34.7273L15.1429 33.8206C14.6647 33.2553 13.8184 33.1824 13.2531 33.6606C12.6878 34.1406 12.6167 34.9833 13.0949 35.5486L13.8878 36.4891C12.6842 38.0855 12.2753 40.2046 13.6993 41.8882C16.3589 45.0349 22.2913 39.8046 24.158 42.0162C24.8051 42.7842 24.6238 44.2491 23.262 45.3975C21.2211 47.1237 19.3722 46.3149 18.542 47.0153C18.1367 47.3549 18.0638 48.002 18.4958 48.5157C19.1838 49.3282 21.3758 49.154 23.4824 47.842C23.486 47.8455 23.486 47.8491 23.486 47.8526L24.3518 48.8766C24.83 49.442 25.678 49.5113 26.2433 49.0366C26.8104 48.5566 26.8798 47.7104 26.4016 47.1451L25.5358 46.1211C25.5269 46.1104 25.5127 46.1033 25.502 46.0926C26.9224 44.354 27.4024 42.0624 25.7402 40.098Z" fill="#5C913B"/>
<path d="M57.6997 57.934C57.7157 57.9198 57.7335 57.9091 57.7495 57.8967C57.8704 57.7758 57.9646 57.6371 58.0713 57.5038C58.1459 57.4114 58.2295 57.3225 58.2988 57.2282C58.361 57.1394 58.4126 57.0487 58.4695 56.958C60.9939 53.07 59.3406 46.478 54.3433 41.4789C49.3442 36.4798 42.7504 34.8265 38.8642 37.3527C38.7717 37.4078 38.6811 37.4594 38.5922 37.5234C38.4979 37.5927 38.4073 37.6762 38.3184 37.7491C38.1868 37.8576 38.0482 37.95 37.9255 38.0727C37.9095 38.0887 37.8988 38.1065 37.8864 38.1225C37.8668 38.142 37.8437 38.1545 37.8224 38.1758L37.8331 38.1847C36.0553 40.0727 36.0339 42.9936 37.8224 44.7838C39.6144 46.5758 42.5335 46.5509 44.4233 44.7731L44.4428 44.7945C44.4055 44.83 44.3646 44.8531 44.329 44.8887C42.4464 46.7714 42.4019 49.774 44.2242 51.5998C46.0482 53.422 49.0544 53.3776 50.9353 51.4949C50.9708 51.4594 50.9939 51.4185 51.0295 51.3811L51.0491 51.4025C49.2713 53.2905 49.2482 56.2113 51.0402 58.0033C52.8304 59.7918 55.7495 59.7705 57.6375 57.9927L57.6482 58.0033C57.6659 57.9785 57.6802 57.9554 57.6997 57.934Z" fill="url(#paint3_linear_1412_15846)"/>
<path d="M37.8258 44.8551C39.4365 46.4639 41.9521 46.5955 43.8169 45.3191C44.5974 43.9857 44.8214 42.7182 44.8214 42.3217C40.8978 45.2479 37.3956 42.3377 36.6116 40.5973C36.2863 42.1013 36.6809 43.7084 37.8258 44.8551ZM50.8018 51.6817C51.3316 50.9368 51.7423 50.2168 51.9343 49.7297C49.4365 52.0195 44.6614 50.3431 43.2143 46.7111C42.5778 48.3999 42.9032 50.3448 44.2294 51.6711C46.0107 53.4524 48.9121 53.4382 50.8018 51.6817ZM57.6534 58.0728L57.705 58.0088C57.7227 57.9946 57.7405 57.9839 57.7547 57.9697C57.8774 57.8488 57.9716 57.7102 58.0765 57.5786C58.153 57.4844 58.2347 57.3973 58.3041 57.3013C58.3681 57.2142 58.4196 57.1217 58.4765 57.0311C58.5921 56.8533 58.6543 56.6435 58.7521 56.4551C54.2578 58.4657 50.9032 55.0542 49.9627 53.3528C49.4383 54.9831 49.7796 56.8088 51.0454 58.0764C52.8338 59.8666 55.753 59.8453 57.6427 58.0657L57.6534 58.0728Z" fill="#CCD6DD"/>
<path d="M24.8107 22.2187L24.8605 22.1796C24.9832 22.0587 25.0774 21.92 25.1823 21.7885C25.2569 21.696 25.3387 21.6089 25.408 21.5129C25.472 21.424 25.5236 21.3334 25.5805 21.2427C28.1049 17.3547 26.4498 10.7609 21.4525 5.76358C16.4534 0.764471 9.86138 -0.89064 5.97338 1.6338C5.88271 1.69069 5.79027 1.74225 5.70138 1.80625C5.60538 1.87558 5.51827 1.95736 5.42582 2.03203C5.29427 2.13869 5.1556 2.23114 5.03471 2.3538C5.01871 2.3698 5.00805 2.38936 4.9956 2.40358C4.97605 2.42136 4.95116 2.43736 4.9316 2.45692L4.94049 2.4658C3.16271 4.3538 3.14138 7.27469 4.9316 9.06492C6.72182 10.8551 9.64271 10.8338 11.5307 9.05603L11.5503 9.07558C11.5129 9.10936 11.472 9.13425 11.4365 9.1698C9.55382 11.0525 9.50938 14.0551 11.3334 15.8809C13.1574 17.7067 16.1618 17.6605 18.0445 15.7778C18.08 15.7423 18.1032 15.7014 18.1387 15.664L18.1583 15.6836C16.3805 17.5716 16.3574 20.4925 18.1494 22.2827C19.9396 24.0729 22.8587 24.0516 24.7467 22.272L24.7556 22.2827C24.7752 22.2631 24.7912 22.24 24.8107 22.2187Z" fill="url(#paint4_linear_1412_15846)"/>
<path d="M4.92996 9.06678C6.54063 10.6775 9.05619 10.809 10.9211 9.52901C11.7015 8.19567 11.9237 6.92989 11.9237 6.53345C8.00196 9.45789 4.49796 6.54589 3.71574 4.80545C3.39041 6.31123 3.78507 7.92012 4.92996 9.06678ZM17.9095 15.8899C18.4375 15.145 18.8482 14.4286 19.0384 13.9415C16.5389 16.2312 11.7637 14.553 10.3184 10.921C9.68196 12.6099 10.0073 14.5548 11.3317 15.881C13.1166 17.6641 16.0197 17.6481 17.9095 15.8899ZM24.7557 22.2846C24.7753 22.265 24.7913 22.2419 24.8091 22.2206L24.8589 22.1815C24.9815 22.0606 25.0757 21.9219 25.1806 21.7903C25.2553 21.6979 25.3371 21.6108 25.4064 21.5148C25.4704 21.4259 25.522 21.3352 25.5789 21.2446C25.6944 21.0668 25.7566 20.8552 25.8544 20.6668C21.3602 22.6775 18.0055 19.2677 17.0651 17.5663C16.5406 19.1966 16.882 21.0223 18.1477 22.2881C19.938 24.0783 22.8571 24.057 24.7451 22.2775L24.7557 22.2846Z" fill="#CCD6DD"/>
</g>
<defs>
<linearGradient id="paint0_linear_1412_15846" x1="50" y1="12.5" x2="10" y2="65.5" gradientUnits="userSpaceOnUse">
<stop stop-color="#A7D28B"/>
<stop offset="0.520833" stop-color="#BBE6A0"/>
<stop offset="0.927083" stop-color="#CFF9B3"/>
</linearGradient>
<linearGradient id="paint1_linear_1412_15846" x1="47.5" y1="19.5" x2="37.5" y2="28" gradientUnits="userSpaceOnUse">
<stop stop-color="#77B255"/>
<stop offset="1" stop-color="#77B255" stop-opacity="0"/>
</linearGradient>
<linearGradient id="paint2_linear_1412_15846" x1="38.5" y1="18.5" x2="27.5" y2="38.5" gradientUnits="userSpaceOnUse">
<stop offset="0.377841" stop-color="#FFE8B6"/>
<stop offset="1" stop-color="#FFF8E8"/>
</linearGradient>
<linearGradient id="paint3_linear_1412_15846" x1="57.5" y1="40.5" x2="48" y2="49.5" gradientUnits="userSpaceOnUse">
<stop stop-color="#E1E8ED"/>
<stop offset="1" stop-color="white"/>
</linearGradient>
<linearGradient id="paint4_linear_1412_15846" x1="17.5" y1="4.57508e-07" x2="11" y2="12" gradientUnits="userSpaceOnUse">
<stop stop-color="#E1E8ED"/>
<stop offset="1" stop-color="white"/>
</linearGradient>
<clipPath id="clip0_1412_15846">
<rect width="64" height="64" fill="white"/>
</clipPath>
</defs>
</svg>
