<svg width="64" height="64" viewBox="0 0 64 64" fill="none" xmlns="http://www.w3.org/2000/svg">
<path d="M59.5555 32C62.0101 32 64 29.2142 64 25.7778C64 22.3413 62.0101 19.5556 59.5555 19.5556C57.1009 19.5556 55.1111 22.3413 55.1111 25.7778C55.1111 29.2142 57.1009 32 59.5555 32Z" fill="url(#paint0_linear_1412_15843)"/>
<path d="M4.44444 32C6.89904 32 8.88889 29.2142 8.88889 25.7778C8.88889 22.3413 6.89904 19.5556 4.44444 19.5556C1.98985 19.5556 0 22.3413 0 25.7778C0 29.2142 1.98985 32 4.44444 32Z" fill="url(#paint1_linear_1412_15843)"/>
<path d="M60.4444 33.7778C60.4444 34.7609 59.6498 35.5556 58.6666 35.5556H53.3333C52.3502 35.5556 51.5555 34.7609 51.5555 33.7778V17.7778C51.5555 16.7964 52.3502 16 53.3333 16H58.6666C59.6498 16 60.4444 16.7964 60.4444 17.7778V33.7778ZM12.4444 33.7778C12.4444 34.7609 11.648 35.5556 10.6667 35.5556H5.33332C4.35199 35.5556 3.55554 34.7609 3.55554 33.7778V17.7778C3.55554 16.7964 4.35199 16 5.33332 16H10.6667C11.648 16 12.4444 16.7964 12.4444 17.7778V33.7778Z" fill="url(#paint2_linear_1412_15843)"/>
<path d="M49.7777 8.88889C49.7777 13.7973 41.8168 16 31.9999 16C22.1813 16 14.2222 13.7973 14.2222 8.88889C14.2222 3.98044 22.1813 0 31.9999 0C41.8168 0 49.7777 3.98044 49.7777 8.88889Z" fill="url(#paint3_linear_1412_15843)"/>
<path d="M44.4444 7.25869C44.4444 10.1227 38.8711 12.4445 32 12.4445C25.1271 12.4445 19.5555 10.1227 19.5555 7.25869C19.5555 4.39469 25.1271 2.07291 32 2.07291C38.8711 2.07291 44.4444 4.39469 44.4444 7.25869Z" fill="url(#paint4_linear_1412_15843)"/>
<path d="M53.3333 9.77777C53.3333 12.2329 51.344 12.4444 48.8888 12.4444H15.1111C12.656 12.4444 10.6666 12.2329 10.6666 9.77777C10.6666 7.32266 12.656 5.33333 15.1111 5.33333H48.8888C51.344 5.33333 53.3333 7.32266 53.3333 9.77777Z" fill="url(#paint5_linear_1412_15843)"/>
<path d="M53.3333 10.6667H10.6666C8.70397 10.6667 7.11108 12.2596 7.11108 14.2222V60.4444H56.8889V14.2222C56.8889 12.2596 55.296 10.6667 53.3333 10.6667Z" fill="url(#paint6_linear_1412_15843)"/>
<path d="M62.2224 58.6667V56.8889C62.2224 54.9262 60.6295 53.3333 58.6669 53.3333H39.2375L33.2571 59.3138C32.562 60.0089 31.4384 60.0089 30.7433 59.3138L24.7629 53.3333H5.33352C3.37085 53.3333 1.77796 54.9262 1.77796 56.8889V58.6667C1.77796 60.6293 1.59307 62.2222 3.55574 62.2222H60.4446C62.4073 62.2222 62.2224 60.6293 62.2224 58.6667Z" fill="url(#paint7_linear_1412_15843)"/>
<path d="M43.5555 33.7778C47.9738 33.7778 51.5555 30.196 51.5555 25.7778C51.5555 21.3595 47.9738 17.7778 43.5555 17.7778C39.1373 17.7778 35.5555 21.3595 35.5555 25.7778C35.5555 30.196 39.1373 33.7778 43.5555 33.7778Z" fill="white"/>
<path d="M43.5554 30.6149C46.2269 30.6149 48.3927 28.4492 48.3927 25.7776C48.3927 23.106 46.2269 20.9403 43.5554 20.9403C40.8838 20.9403 38.718 23.106 38.718 25.7776C38.718 28.4492 40.8838 30.6149 43.5554 30.6149Z" fill="#DD2E44"/>
<path d="M20.4445 33.7778C24.8627 33.7778 28.4445 30.196 28.4445 25.7778C28.4445 21.3595 24.8627 17.7778 20.4445 17.7778C16.0262 17.7778 12.4445 21.3595 12.4445 25.7778C12.4445 30.196 16.0262 33.7778 20.4445 33.7778Z" fill="white"/>
<path d="M51.5556 45.3333C51.5556 47.7884 49.5662 49.7778 47.1111 49.7778H16.8889C14.4338 49.7778 12.4445 47.7884 12.4445 45.3333C12.4445 42.8782 14.4338 40.8889 16.8889 40.8889H47.1111C49.5662 40.8889 51.5556 42.8782 51.5556 45.3333Z" fill="url(#paint8_linear_1412_15843)"/>
<path d="M30.2222 40.8889H33.7778V49.7778H30.2222V40.8889ZM21.3333 40.8889H24.8889V49.7778H21.3333V40.8889ZM39.1111 40.8889H42.6667V49.7778H39.1111V40.8889ZM12.4445 45.3333C12.4445 47.4844 13.9716 49.2764 16 49.6889V40.9778C13.9716 41.3902 12.4445 43.1822 12.4445 45.3333ZM48 40.9778V49.6871C50.0285 49.2747 51.5556 47.4827 51.5556 45.3316C51.5556 43.1804 50.0285 41.3902 48 40.9778Z" fill="url(#paint9_linear_1412_15843)"/>
<path d="M20.4443 30.6149C23.1159 30.6149 25.2816 28.4492 25.2816 25.7776C25.2816 23.106 23.1159 20.9403 20.4443 20.9403C17.7727 20.9403 15.6069 23.106 15.6069 25.7776C15.6069 28.4492 17.7727 30.6149 20.4443 30.6149Z" fill="#DD2E44"/>
<defs>
<linearGradient id="paint0_linear_1412_15843" x1="59.5555" y1="19.5556" x2="59.5555" y2="32" gradientUnits="userSpaceOnUse">
<stop stop-color="#F4900C"/>
<stop offset="1" stop-color="#FFD49C"/>
</linearGradient>
<linearGradient id="paint1_linear_1412_15843" x1="4.44444" y1="19.5556" x2="4.44444" y2="32" gradientUnits="userSpaceOnUse">
<stop stop-color="#F4900C"/>
<stop offset="1" stop-color="#FFD49C"/>
</linearGradient>
<linearGradient id="paint2_linear_1412_15843" x1="32" y1="16" x2="32" y2="35.5556" gradientUnits="userSpaceOnUse">
<stop stop-color="#FFAC33"/>
<stop offset="1" stop-color="#FEECD3"/>
</linearGradient>
<linearGradient id="paint3_linear_1412_15843" x1="24.5" y1="1.5" x2="50" y2="8.5" gradientUnits="userSpaceOnUse">
<stop stop-color="#FFCC4D"/>
<stop offset="1" stop-color="#FFCC4D" stop-opacity="0.2"/>
</linearGradient>
<linearGradient id="paint4_linear_1412_15843" x1="27.5" y1="4.5" x2="45" y2="5.5" gradientUnits="userSpaceOnUse">
<stop stop-color="#F4900C"/>
<stop offset="1" stop-color="#F4900C" stop-opacity="0"/>
</linearGradient>
<linearGradient id="paint5_linear_1412_15843" x1="16.4999" y1="9" x2="40.9999" y2="8.99999" gradientUnits="userSpaceOnUse">
<stop stop-color="#226699"/>
<stop offset="1" stop-color="#54A8E7"/>
</linearGradient>
<linearGradient id="paint6_linear_1412_15843" x1="4" y1="11" x2="45.5" y2="44.5" gradientUnits="userSpaceOnUse">
<stop stop-color="#55ACEE"/>
<stop offset="1" stop-color="#EDD6FF"/>
</linearGradient>
<linearGradient id="paint7_linear_1412_15843" x1="-4.99988" y1="58" x2="54.0001" y2="62" gradientUnits="userSpaceOnUse">
<stop stop-color="#3B88C3"/>
<stop offset="1" stop-color="#9FD0F5"/>
</linearGradient>
<linearGradient id="paint8_linear_1412_15843" x1="15.5001" y1="45" x2="51.0001" y2="45" gradientUnits="userSpaceOnUse">
<stop stop-color="#DCF1FF"/>
<stop offset="1" stop-color="white"/>
</linearGradient>
<linearGradient id="paint9_linear_1412_15843" x1="32" y1="40.8889" x2="32.0001" y2="53.5" gradientUnits="userSpaceOnUse">
<stop stop-color="#BAC4CB"/>
<stop offset="1" stop-color="#B7C3CB" stop-opacity="0"/>
</linearGradient>
</defs>
</svg>
