<svg width="64" height="64" viewBox="0 0 64 64" fill="none" xmlns="http://www.w3.org/2000/svg">
<path d="M63.712 41.1716C63.7174 42.1547 62.9245 42.9529 61.9378 42.9547L53.0489 42.9778C52.0676 42.9813 51.2729 42.1849 51.2711 41.2053C51.2658 40.2187 52.0605 39.424 53.04 39.4204L61.9289 39.3973C62.912 39.3973 63.7103 40.1885 63.712 41.1716ZM60.8907 31.4133C61.3138 32.3005 60.9352 33.36 60.0463 33.7831L52.016 37.5965C51.1307 38.016 50.0712 37.6373 49.6516 36.7502C49.2267 35.8649 49.6071 34.8053 50.4943 34.3805L58.5227 30.5689C59.4116 30.1493 60.4694 30.5262 60.8907 31.4133ZM60.9387 50.9458C61.3547 50.0551 60.9743 48.9973 60.0854 48.5813L52.0374 44.8089C51.1467 44.3911 50.0907 44.7733 49.6729 45.6622C49.2569 46.5529 49.6392 47.6107 50.5298 48.0267L58.576 51.8009C59.4632 52.2169 60.5245 51.8347 60.9387 50.9458Z" fill="url(#paint0_linear_1412_15842)"/>
<path d="M49.7405 26.4444C47.216 25.6996 44.9529 23.6942 44.1654 22.4444C42.8143 20.2969 44.4445 19.7404 43.8934 13.7529C43.3867 8.272 35.84 2.37689 26.6667 1.77778C22.496 1.50578 18.1583 2.35733 13.7138 4.78756C2.30048 11.0293 -2.22219 24.2222 6.59204 36.9636C14.5387 48.448 7.0827 53.6373 7.0827 53.6373C7.0827 53.6373 7.37781 56.0551 12.2631 59.3049C17.1503 62.5529 23.1449 60.3502 23.1449 60.3502C23.1449 60.3502 25.1218 53.3209 31.5858 53.968C36.2187 54.6507 42.7254 53.7387 44.3698 52.1476C45.9076 50.6596 44.1014 48.7947 45.328 44.6382C41.1236 44.2258 38.8125 42.2222 38.5903 39.3973C43.2569 39.8507 45.1823 38.3698 46.5156 36.7396C46.4783 35.7796 46.3823 33.7422 46.2898 32.3769C50.4178 31.1822 52 27.1111 49.7405 26.4444Z" fill="url(#paint1_linear_1412_15842)"/>
<defs>
<linearGradient id="paint0_linear_1412_15842" x1="50" y1="40" x2="76" y2="40" gradientUnits="userSpaceOnUse">
<stop stop-color="#FA743E"/>
<stop offset="1" stop-color="#FA743E" stop-opacity="0"/>
</linearGradient>
<linearGradient id="paint1_linear_1412_15842" x1="26.365" y1="1.72917" x2="42.0001" y2="104.5" gradientUnits="userSpaceOnUse">
<stop stop-color="#3B88C3"/>
<stop offset="1" stop-color="#8053FF" stop-opacity="0"/>
</linearGradient>
</defs>
</svg>
