<svg width="64" height="64" viewBox="0 0 64 64" fill="none" xmlns="http://www.w3.org/2000/svg">
<g clip-path="url(#clip0_1412_15844)">
<path d="M8.64182 16.2613C10.3129 15.0933 12.832 15.3173 14.3325 16.5564L12.6116 14.0551C11.2267 12.08 11.7227 9.9431 13.6996 8.55644C15.6765 7.1751 21.2783 10.8889 21.2783 10.8889C19.8809 8.89422 20.1423 6.36622 22.1369 4.9671C24.1316 3.57333 26.8836 4.0551 28.2809 6.05333L46.8054 32.2222L44.4445 55.1111L24.7414 47.9253L7.5556 22.4444C6.14582 20.4373 6.63293 17.6693 8.64182 16.2613Z" fill="url(#paint0_linear_1412_15844)"/>
<path d="M4.79116 30.8196C4.79116 30.8196 2.77872 27.8862 5.71383 25.8756C8.64538 23.8649 10.6561 26.7964 10.6561 26.7964L19.9912 40.4107C20.3129 39.8738 20.6649 39.344 21.0578 38.8213L8.10138 19.9289C8.10138 19.9289 6.09072 16.9973 9.02405 14.9867C11.9556 12.976 13.9663 15.9076 13.9663 15.9076L26.1529 33.68C26.6063 33.3102 27.0703 32.9387 27.5485 32.5742L13.4205 11.968C13.4205 11.968 11.4098 9.03644 14.3432 7.02577C17.2747 5.01511 19.2854 7.94666 19.2854 7.94666L33.4134 28.5493C33.9325 28.2311 34.4463 27.9556 34.9618 27.664L21.7565 8.40711C21.7565 8.40711 19.7458 5.47555 22.6774 3.46488C25.6089 1.45422 27.6196 4.38577 27.6196 4.38577L41.5823 24.7484L43.7049 27.8453C34.9085 33.8791 34.0712 45.2302 39.0969 52.56C40.1014 54.0267 41.5681 53.0222 41.5681 53.0222C35.5361 44.224 37.3778 34.3378 46.1761 28.3058L43.5823 15.3244C43.5823 15.3244 42.6134 11.904 46.0321 10.9333C49.4525 9.96444 50.4232 13.3849 50.4232 13.3849L53.4187 22.2809C54.6063 25.808 55.8703 29.3227 57.5432 32.6471C62.2667 42.0338 59.4454 53.6996 50.5387 59.8098C40.8232 66.4711 27.5414 63.9947 20.8783 54.2809L4.79116 30.8196Z" fill="url(#paint1_linear_1412_15844)"/>
<path d="M21.3333 56.9636C14.2222 56.9636 7.03639 49.7778 7.03639 42.6667C7.03639 41.6836 6.31639 40.8889 5.33328 40.8889C4.35017 40.8889 3.48083 41.6836 3.48083 42.6667C3.48083 53.3333 10.6666 60.5191 21.3333 60.5191C22.3164 60.5191 23.1111 59.6498 23.1111 58.6667C23.1111 57.6836 22.3164 56.9636 21.3333 56.9636Z" fill="url(#paint2_linear_1412_15844)"/>
<path d="M12.4444 60.4444C7.11111 60.4444 3.55556 56.8889 3.55556 51.5556C3.55556 50.5724 2.76089 49.7778 1.77778 49.7778C0.794667 49.7778 0 50.5724 0 51.5556C0 58.6667 5.33333 64 12.4444 64C13.4276 64 14.2222 63.2053 14.2222 62.2222C14.2222 61.2391 13.4276 60.4444 12.4444 60.4444ZM42.6667 3.55556C41.6853 3.55556 40.8889 4.352 40.8889 5.33333C40.8889 6.31467 41.6853 7.11111 42.6667 7.11111C49.7778 7.11111 56.8889 13.4916 56.8889 21.3333C56.8889 22.3147 57.6853 23.1111 58.6667 23.1111C59.648 23.1111 60.4444 22.3147 60.4444 21.3333C60.4444 11.5307 53.3333 3.55556 42.6667 3.55556Z" fill="url(#paint3_linear_1412_15844)"/>
<path d="M51.5556 0.0746613C50.5743 0.0746613 49.7778 0.796439 49.7778 1.77777C49.7778 2.75911 50.5743 3.63022 51.5556 3.63022C56.8889 3.63022 60.3698 7.58577 60.3698 12.4444C60.3698 13.4258 61.2392 14.2222 62.2223 14.2222C63.2054 14.2222 63.9254 13.4258 63.9254 12.4444C63.9254 5.62311 58.6667 0.0746613 51.5556 0.0746613Z" fill="url(#paint4_linear_1412_15844)"/>
</g>
<defs>
<linearGradient id="paint0_linear_1412_15844" x1="26.7774" y1="4.17081" x2="57.5001" y2="127" gradientUnits="userSpaceOnUse">
<stop stop-color="#FFBF21"/>
<stop offset="1" stop-color="#FFBF21" stop-opacity="0"/>
</linearGradient>
<linearGradient id="paint1_linear_1412_15844" x1="-1" y1="11" x2="56" y2="64" gradientUnits="userSpaceOnUse">
<stop offset="0.0140542" stop-color="#FFF1D7"/>
<stop offset="1" stop-color="#FFD98F"/>
</linearGradient>
<linearGradient id="paint2_linear_1412_15844" x1="13.2959" y1="40.8889" x2="13.9999" y2="65" gradientUnits="userSpaceOnUse">
<stop stop-color="#5DADEC"/>
<stop offset="1" stop-color="#5DADEC" stop-opacity="0"/>
</linearGradient>
<linearGradient id="paint3_linear_1412_15844" x1="63" y1="-57" x2="2" y2="91.5" gradientUnits="userSpaceOnUse">
<stop offset="0.0993318" stop-color="#5DADEC"/>
<stop offset="1" stop-color="#5DADEC" stop-opacity="0"/>
</linearGradient>
<linearGradient id="paint4_linear_1412_15844" x1="56.8516" y1="0.0746613" x2="57" y2="18.5" gradientUnits="userSpaceOnUse">
<stop stop-color="#5DADEC"/>
<stop offset="1" stop-color="#5DADEC" stop-opacity="0"/>
</linearGradient>
<clipPath id="clip0_1412_15844">
<rect width="64" height="64" fill="white"/>
</clipPath>
</defs>
</svg>
